<svg viewBox="0 0 100 100" xmlns="http://www.w3.org/2000/svg"><path d="m50 0C22.404-.1707e-6.0 22.404.0 50c73205e-19 27.596 22.404 50 50 50 27.546.0 49.911-22.324 49.992-49.852a1.5 1.5.0 00.007812-.14844 1.5 1.5.0 00-.005859-.13281c-.072608-27.535-22.443-49.867-49.994-49.867zm0 3c.44943.0.89346.020698 1.3398.033203.79332.17082 1.4876.35019 1.8027.55078 1.1686-.30134 1.4493-.32937 1.3867-.36328 5.8207.55567 11.327 2.1741 16.33 4.6543-.002048.14628-596e-6.2977.023437.48828-1.7794.43954 2.2927 3.8529.66406 5.9746-.21454 2.9274-3.6719 6.482-5.3047 6.3086 2.1061 2.8002 1.7303 7.7372-1.9355 7.3457-2.7441.0973-3.9698 2.8572-5.9219 4.3262.8819-2.6982-1.6253-2.8793-1.3145-4.8652-1.7412 1.232-1.5593 2.0198-3.0742-.1875 1.54-1.132-.80439-3.9243-1.3945-4.2188-1.3769.77391-2.8158.37411-.67578 2.0098-5.4331 1.6095 2.2626 5.309-.75781 8.7988-1.8692 4.4305-6.3677 6.9671-10.965 7.5176 1.3296 3.0559-4.7186 4.7467-2.3848.97461 1.4525-2.9241-5.702 1.2577-1.6719 2.959 2.434 1.9931 3.1824 7.0501-.5293 8.1523-2.1008 2.4073-3.0294 1.1046-4.5254-1.0273-1.6311-4.6674-4.6044.21631-2.3145 2.7305 3.193 2.5241 3.2728 5.5274 4.3242 8.7812-.81641 2.2732 5.6918 2.7732 2.627 3.9492-4.1028.0797 2.7432 4.281 3.5527 2.3633 2.3015 1.2516 7.2888.95101 4.793 2.2148 2.7615.32581 7.503.89004 4.2227-2.8105-1.1771-1.8855-.28823-5.4544 2.3555-6.9609 2.2089 2.348 5.6233-3.1204 4.7734.58203-1.7732 1.4096-3.0351 2.7015.24609 2.8184 1.3219 2.8957 4.8901.30537 4.2383-1.6562 1.9061-.53766 5.8604.083711 7.6816.77539 3.0171-.003 7.9635.65818 9.248 2.7598 1.0377-1.2592 4.4066-.39503 3.4473-2.7109-1.775-.64446-.87308-3.0186.72656-.81836 2.1693.144 3.4958 3.7874 6.2188 3.7461 2.0693 3.672-2.489 1.3087-1.8789.42578-1.5552 3.5504-2.1731-4.842-3.7324-1.5391-1.715.92491-5.7071 3.6295-2.2188 3.4863 2.2865-.83773-.46382 4.6691-2.9824 1.8242-3.1574-3.5363-5.2523 3.2167-2.3555 4.168.09203 2.3696 2.1035 3.7816 3.0488 5.7383 2.4937 2.4846-3.1736 6.4598-5.1992 8.4453-.97068.41025-1.9606 1.4247-2.8965 2.2422-.82137.36355-1.6527.70831-2.498 1.0254-.30922-.15603-.59616-.47326-.85352-1.0352-2.7018-.1332-4.4397-2.0626-7.5742-2.0469-4.1958.32153-9.1633 3.0805-12.949 1.1855.31358-2.7119-5.4383-7.3002.11914-8.5371 4.3171.30175 6.3845-3.146 9.4785-5.2734 2.1008-1.1126 5.2002 1.3147 5.127-2.0664.13656-2.0806 6.3254-1.0607 7.0898-.92383-.85309 2.7227-1.4547 3.8492 2.1641 3.5781.59502 1.9733 3.5579-5.8404 1.8965-5.8887-1.3886-1.2344-5.3579.29589-2.2695-2.1777-1.448-3.4433-6.6526-.21612-6.7676-4.2598-2.7884-.30129 2.5976 4.1748-1.6543 1.9062-3.7178 1.5064-5.5506-1.757-8.7148-1.6855 1.6714 1.658 3.6858 5.4461.015625 3.9961-2.0891-3.3468-1.4809 1.0861-.71289 1.9414.48034-2.4847.6315 1.6572 2.834-.21484 1.7535-1.5138 7.6361.7595 3.6855.35938.45499.29934-7.3382 5.2697-4.5684 1.4004.02021-1.1987-3.8716.40426-1.2539.93555-2.8147.45776-6.0391-1.8643-9.4043-1.7715-3.8439-.43312-7.9812-.95162-10.57-4.0938-1.9972-2.8942-5.106-2.2588-5.5625-6.252-.67788-1.9696-3.0214-4.5147-2.7715-6.5742 2.7277-.30032 6.3517 6.6013 4.5371 1.1094-1.9162-2.3754-2.4993-5.9825-1.4844-8.8281.29195-2.8923-.88433-2.858-2.7637-2.4688-.49562-2.2554.025668-8.2633-4.2344-6.5508-2.4088 2.5802-6.7217 4.0242-6.8066 7.9199-1.1306 1.5281 2.2799 8.4447-1.0645 6.4473.22114-2.9147-.32504-2.2951-1.5234-2.2871-1.2233-4.2671-1.1584-8.9257-.63086-13.213-2.1834-2.0446 1.3178-4.6961-2.7305-5.2246-.91691-1.8249-.73114 3.8126-2.3066 5.6309 4.9308-20.683 23.503-36.049 45.705-36.049zm16.893 4.666c-.10322-.0099052-.20318-.0064441-.29688.0097656-.44974.077807-.73606.45967-.34961 1.1855-2.6776-1.1195-9.5064 1.4665-3.8027 2.918-.21576-1.4874 5.2146 4.1132 2.7539 3.6074 1.1181 1.4236 1.3011 1.9569.39844 1.8594.41164.92115 1.5769 1.231 2.4609.84961 4.5302-1.8173 2.309-5.9853-.22266-8.4453.62433-1.2138-.21889-1.915-.94141-1.9844zm11.354 4.7578c.23981.18048.47082.3717.70703.55664-.83616-.11332-.88601-.30149-.70703-.55664zm-15.041 1.127c-.11689-.041091-.081298.41124.23047 1.6562-.21715 3.6962-3.4103 4.6776-5.7051 5.6777-3.0952 2.1518 1.2258 3.5062.50781 6.4492-.28302.5292.66886.5428.68945.125 1.5598-2.4586 3.9586-1.4192 5.1797-3.2891 2.1549-.22007-.42712-3.8447.9707-5.0684.20624-.86975-1.5224-5.4275-1.873-5.5508zM50.97 36.9788c.65351.043728 1.0156.74031.15625 2.4707-.38703.78278.40385 1.8789-1.5488 1-1.5945-1.8004.3034-3.5436 1.3926-3.4707zm-.30469 6.334c.99448-.099918 1.9861 1.1222 1.5742 3.248-2.4389 1.8404 2.8842 1.8939 2.6152 3.8301 1.8035 1.8048 3.6776 9.0009-.60938 8.3242-1.7886-4.1039-2.8892 1.323-5.7656 1.1621-3.038.95183 1.3332 3.2571-.73242 4.4492-1.8057.18862-1.7858 5.8031-3.1797 5.0156-.99689-.92292-5.9862-.17267-6.6406-2.8711-2.2719-1.358-.44459-5.1544-1.918-7.3691 1.44.25258 2.2426 5.5091 4.0469 1.7617 4.0523-.94811 5.2418-5.2472 7.7949-7.8223 2.5652-2.0826.88693-4.0851 1.1504-6.8984.11616-1.875.89058-2.7524 1.6641-2.8301zm-.51562 8.4785c-.73606 2.3287-6.2665 4.7994-1.6426 6.7207l.74805.003906.23633-.21875c2.5073-.8878 1.9313-3.9665 1.9121-5.8828-1.1919.37502-.85693.56747-1.2539-.62305zm8.7129 10.141c.54625.056075.77761.85188-.068359 2.7598.5864 1.1445-.98013 3.0215-1.752 1.3984-.87466-2.29.9099-4.2517 1.8203-4.1582z" color="#000" fill="navy"/></svg>