<svg version="1.1" viewBox="0 0 100 100" xmlns="http://www.w3.org/2000/svg">
 <path d="m50 0c-27.596-1.707e-7 -50 22.404-50 50 7.3205e-15 27.596 22.404 50 50 50 27.546 0 49.911-22.324 49.992-49.852a1.5 1.5 0 0 0 0.007812-0.14844 1.5 1.5 0 0 0-0.005859-0.13281c-0.072608-27.535-22.443-49.867-49.994-49.867zm0 3c0.44943 0 0.89346 0.020698 1.3398 0.033203 0.79332 0.17082 1.4876 0.35019 1.8027 0.55078 1.1686-0.30134 1.4493-0.32937 1.3867-0.36328 5.8207 0.55567 11.327 2.1741 16.33 4.6543-0.002048 0.14628-5.96e-4 0.2977 0.023437 0.48828-1.7794 0.43954 2.2927 3.8529 0.66406 5.9746-0.21454 2.9274-3.6719 6.482-5.3047 6.3086 2.1061 2.8002 1.7303 7.7372-1.9355 7.3457-2.7441 0.0973-3.9698 2.8572-5.9219 4.3262 0.8819-2.6982-1.6253-2.8793-1.3145-4.8652-1.7412 1.232-1.5593 2.0198-3.0742-0.1875 1.54-1.132-0.80439-3.9243-1.3945-4.2188-1.3769 0.77391-2.8158 0.37411-0.67578 2.0098-5.4331 1.6095 2.2626 5.309-0.75781 8.7988-1.8692 4.4305-6.3677 6.9671-10.965 7.5176 1.3296 3.0559-4.7186 4.7467-2.3848 0.97461 1.4525-2.9241-5.702 1.2577-1.6719 2.959 2.434 1.9931 3.1824 7.0501-0.5293 8.1523-2.1008 2.4073-3.0294 1.1046-4.5254-1.0273-1.6311-4.6674-4.6044 0.21631-2.3145 2.7305 3.193 2.5241 3.2728 5.5274 4.3242 8.7812-0.81641 2.2732 5.6918 2.7732 2.627 3.9492-4.1028 0.0797 2.7432 4.281 3.5527 2.3633 2.3015 1.2516 7.2888 0.95101 4.793 2.2148 2.7615 0.32581 7.503 0.89004 4.2227-2.8105-1.1771-1.8855-0.28823-5.4544 2.3555-6.9609 2.2089 2.348 5.6233-3.1204 4.7734 0.58203-1.7732 1.4096-3.0351 2.7015 0.24609 2.8184 1.3219 2.8957 4.8901 0.30537 4.2383-1.6562 1.9061-0.53766 5.8604 0.083711 7.6816 0.77539 3.0171-3e-3 7.9635 0.65818 9.248 2.7598 1.0377-1.2592 4.4066-0.39503 3.4473-2.7109-1.775-0.64446-0.87308-3.0186 0.72656-0.81836 2.1693 0.144 3.4958 3.7874 6.2188 3.7461 2.0693 3.672-2.489 1.3087-1.8789 0.42578-1.5552 3.5504-2.1731-4.842-3.7324-1.5391-1.715 0.92491-5.7071 3.6295-2.2188 3.4863 2.2865-0.83773-0.46382 4.6691-2.9824 1.8242-3.1574-3.5363-5.2523 3.2167-2.3555 4.168 0.09203 2.3696 2.1035 3.7816 3.0488 5.7383 2.4937 2.4846-3.1736 6.4598-5.1992 8.4453-0.97068 0.41025-1.9606 1.4247-2.8965 2.2422-0.82137 0.36355-1.6527 0.70831-2.498 1.0254-0.30922-0.15603-0.59616-0.47326-0.85352-1.0352-2.7018-0.1332-4.4397-2.0626-7.5742-2.0469-4.1958 0.32153-9.1633 3.0805-12.949 1.1855 0.31358-2.7119-5.4383-7.3002 0.11914-8.5371 4.3171 0.30175 6.3845-3.146 9.4785-5.2734 2.1008-1.1126 5.2002 1.3147 5.127-2.0664 0.13656-2.0806 6.3254-1.0607 7.0898-0.92383-0.85309 2.7227-1.4547 3.8492 2.1641 3.5781 0.59502 1.9733 3.5579-5.8404 1.8965-5.8887-1.3886-1.2344-5.3579 0.29589-2.2695-2.1777-1.448-3.4433-6.6526-0.21612-6.7676-4.2598-2.7884-0.30129 2.5976 4.1748-1.6543 1.9062-3.7178 1.5064-5.5506-1.757-8.7148-1.6855 1.6714 1.658 3.6858 5.4461 0.015625 3.9961-2.0891-3.3468-1.4809 1.0861-0.71289 1.9414 0.48034-2.4847 0.6315 1.6572 2.834-0.21484 1.7535-1.5138 7.6361 0.7595 3.6855 0.35938 0.45499 0.29934-7.3382 5.2697-4.5684 1.4004 0.02021-1.1987-3.8716 0.40426-1.2539 0.93555-2.8147 0.45776-6.0391-1.8643-9.4043-1.7715-3.8439-0.43312-7.9812-0.95162-10.57-4.0938-1.9972-2.8942-5.106-2.2588-5.5625-6.252-0.67788-1.9696-3.0214-4.5147-2.7715-6.5742 2.7277-0.30032 6.3517 6.6013 4.5371 1.1094-1.9162-2.3754-2.4993-5.9825-1.4844-8.8281 0.29195-2.8923-0.88433-2.858-2.7637-2.4688-0.49562-2.2554 0.025668-8.2633-4.2344-6.5508-2.4088 2.5802-6.7217 4.0242-6.8066 7.9199-1.1306 1.5281 2.2799 8.4447-1.0645 6.4473 0.22114-2.9147-0.32504-2.2951-1.5234-2.2871-1.2233-4.2671-1.1584-8.9257-0.63086-13.213-2.1834-2.0446 1.3178-4.6961-2.7305-5.2246-0.91691-1.8249-0.73114 3.8126-2.3066 5.6309 4.9308-20.683 23.503-36.049 45.705-36.049zm16.893 4.666c-0.10322-0.0099052-0.20318-0.0064441-0.29688 0.0097656-0.44974 0.077807-0.73606 0.45967-0.34961 1.1855-2.6776-1.1195-9.5064 1.4665-3.8027 2.918-0.21576-1.4874 5.2146 4.1132 2.7539 3.6074 1.1181 1.4236 1.3011 1.9569 0.39844 1.8594 0.41164 0.92115 1.5769 1.231 2.4609 0.84961 4.5302-1.8173 2.309-5.9853-0.22266-8.4453 0.62433-1.2138-0.21889-1.915-0.94141-1.9844zm11.354 4.7578c0.23981 0.18048 0.47082 0.3717 0.70703 0.55664-0.83616-0.11332-0.88601-0.30149-0.70703-0.55664zm-15.041 1.127c-0.11689-0.041091-0.081298 0.41124 0.23047 1.6562-0.21715 3.6962-3.4103 4.6776-5.7051 5.6777-3.0952 2.1518 1.2258 3.5062 0.50781 6.4492-0.28302 0.5292 0.66886 0.5428 0.68945 0.125 1.5598-2.4586 3.9586-1.4192 5.1797-3.2891 2.1549-0.22007-0.42712-3.8447 0.9707-5.0684 0.20624-0.86975-1.5224-5.4275-1.873-5.5508zm-12.236 23.428c0.65351 0.043728 1.0156 0.74031 0.15625 2.4707-0.38703 0.78278 0.40385 1.8789-1.5488 1-1.5945-1.8004 0.3034-3.5436 1.3926-3.4707zm-0.30469 6.334c0.99448-0.099918 1.9861 1.1222 1.5742 3.248-2.4389 1.8404 2.8842 1.8939 2.6152 3.8301 1.8035 1.8048 3.6776 9.0009-0.60938 8.3242-1.7886-4.1039-2.8892 1.323-5.7656 1.1621-3.038 0.95183 1.3332 3.2571-0.73242 4.4492-1.8057 0.18862-1.7858 5.8031-3.1797 5.0156-0.99689-0.92292-5.9862-0.17267-6.6406-2.8711-2.2719-1.358-0.44459-5.1544-1.918-7.3691 1.44 0.25258 2.2426 5.5091 4.0469 1.7617 4.0523-0.94811 5.2418-5.2472 7.7949-7.8223 2.5652-2.0826 0.88693-4.0851 1.1504-6.8984 0.11616-1.875 0.89058-2.7524 1.6641-2.8301zm-0.51562 8.4785c-0.73606 2.3287-6.2665 4.7994-1.6426 6.7207l0.74805 0.003906 0.23633-0.21875c2.5073-0.8878 1.9313-3.9665 1.9121-5.8828-1.1919 0.37502-0.85693 0.56747-1.2539-0.62305zm8.7129 10.141c0.54625 0.056075 0.77761 0.85188-0.068359 2.7598 0.5864 1.1445-0.98013 3.0215-1.752 1.3984-0.87466-2.29 0.9099-4.2517 1.8203-4.1582z" color="#000000" fill="#000080"/>
</svg>
